<?xml version="1.0" encoding="UTF-8"?>
<svg width="132px" height="40px" viewBox="0 0 132 40" version="1.1" xmlns="http://www.w3.org/2000/svg" xmlns:xlink="http://www.w3.org/1999/xlink">
    <title>logo_black</title>
    <g id="logo_black" stroke="none" stroke-width="1" fill="none" fill-rule="evenodd">
        <path d="M16,9 C16,9 15.3273773,12.6282061 14.6312402,16.1292798 L14.5117931,16.7275178 C14.113676,18.7128218 13.7199922,20.5865427 13.4518583,21.647976 C12.8485112,24.035709 12.1504021,25.5664748 10.1621387,26.8318332 C8.92675505,27.6224485 7.5392306,28 5.46663769,28 C3.36970224,28 1.58226473,27.4056367 0,26.018789 L0,26.018789 L3.70528146,23.1170626 C4.19647903,23.6787172 4.65029341,24.035709 5.68224299,24.035709 C6.85677027,24.0422508 7.92610302,23.6618956 8.63029776,21.5451773 C8.76281554,21.1488517 8.94353629,20.42418 9.14841004,19.5154472 L9.26241015,19.002388 C9.47527177,18.0314937 9.70791367,16.902772 9.93628588,15.7605078 L10.0602845,15.1369787 C10.6767151,12.0212907 11.2288633,9 11.2288633,9 L11.2288633,9 Z M25,10 L21.1553398,26 L16,26 L19.840902,10 L25,10 Z M32.7350713,10 L38.3390957,18.0441715 L40.1561876,10 L45,10 L41.3914215,26 L38.7920442,26 L32.6582555,17.9492234 L30.8411636,26 L26,26 L29.6068126,10 L32.7350713,10 Z M53.8023897,10 L52.3556985,16.1526395 L58.515625,16.1526395 L59.9540441,10 L65,10 L61.2426471,26 L56.1985294,26 L57.6875,19.6624181 L51.5266544,19.6624181 L50.0477941,26 L45,26 L48.7573529,10 L53.8023897,10 Z M81.7873529,10 L83,26 L77.3447059,26 L76.6992647,12.2567722 L69.6459804,26 L64,26 L72.6794608,10 L81.7873529,10 Z M109.195943,0 L132,16.3056144 L101,40 L103.659109,27.0233051 L116.537452,16.6649011 L107.210103,9.45709746 L109.195943,0 Z M93.2148066,10 L91.9777816,15.6638629 L99.1940465,10 L105,10 L95.732607,17.1351463 L102.684653,26 L96.6230591,26 L91.2623316,18.9259508 L89.7036116,26 L85,26 L88.5077636,10 L93.2148066,10 Z" id="logo" fill="#000000"></path>
    </g>
</svg>