<svg xmlns="http://www.w3.org/2000/svg"  viewBox="0 0 24 24" width="48px" height="48px"><path fill="#2D98D4" d="M19,5l-5-5H3C1.8954304,0,1,0.8954305,1,2v20c0,1.1045704,0.8954304,2,2,2h14c1.1045704,0,2-0.8954296,2-2 V5z"/><path fill="#010101" d="M17,23.75H3c-1.1045532,0-2-0.8954468-2-2V22c0,1.1045532,0.8954468,2,2,2h14 c1.1045532,0,2-0.8954468,2-2v-0.25C19,22.8545532,18.1045532,23.75,17,23.75z" opacity=".1"/><path fill="#0377BE" d="M14,0v3c0,1.1045532,0.8954468,2,2,2h3L14,0z"/><path fill="#FFF" d="M14,0H3C1.8954468,0,1,0.8953857,1,2v0.25c0-1.1046143,0.8954468-2,2-2h11V0z" opacity=".2"/><path fill="#010101" d="M16,4.75c-1.1045532,0-2-0.8954468-2-2V3c0,1.1045532,0.8954468,2,2,2h3l-0.25-0.25H16z" opacity=".1"/><linearGradient id="nVUddWd-XdmNPYTvLJJ71a" x1="15.781" x2="19.271" y1="3.695" y2="7.185" gradientUnits="userSpaceOnUse"><stop offset="0" stop-color="#010101" stop-opacity=".1"/><stop offset="1" stop-color="#010101" stop-opacity="0"/></linearGradient><path fill="url(#nVUddWd-XdmNPYTvLJJ71a)" d="M16,5c-0.5498047,0-1.0473633-0.2223511-1.4089355-0.5814819L19,8.8274536V5H16z"/><path fill="#0A70B9" d="M7,11h15c0.5522842,0,1,0.4477148,1,1v7c0,0.5522842-0.4477158,1-1,1H7c-0.5522847,0-1-0.4477158-1-1v-7 C6,11.4477148,6.4477153,11,7,11z"/><path fill="#FFF" d="M22,11H7c-0.5523071,0-1,0.4476929-1,1v0.25c0-0.5523071,0.4476929-1,1-1h15 c0.5523071,0,1,0.4476929,1,1V12C23,11.4476929,22.5523071,11,22,11z" opacity=".2"/><path fill="#010101" d="M22,19.75H7c-0.5523071,0-1-0.4477539-1-1V19c0,0.5522461,0.4476929,1,1,1h15 c0.5523071,0,1-0.4477539,1-1v-0.25C23,19.3022461,22.5523071,19.75,22,19.75z" opacity=".1"/><linearGradient id="nVUddWd-XdmNPYTvLJJ71b" x1="9.822" x2="16.082" y1="17.028" y2="23.287" gradientUnits="userSpaceOnUse"><stop offset="0" stop-color="#010101" stop-opacity=".1"/><stop offset="1" stop-color="#010101" stop-opacity="0"/></linearGradient><path fill="url(#nVUddWd-XdmNPYTvLJJ71b)" d="M7,20c-0.2722168,0-0.5177612-0.1104126-0.6981201-0.2868652L10.5887451,24H17 c1.1045532,0,2-0.8954468,2-2v-2H7z"/><path fill="#FFF" d="M14,0H3C1.8954468,0,1,0.8953857,1,2v0.25c0-1.1046143,0.8954468-2,2-2h11V0z" opacity=".2"/><path fill="#FFF" d="M10.5,13C9.6728516,13,9,13.6728516,9,14.5V18h1v-1h1v1h1v-3.5C12,13.6728516,11.3271484,13,10.5,13z M10,16v-1.5c0-0.2758789,0.2241211-0.5,0.5-0.5s0.5,0.2241211,0.5,0.5V16H10z"/><path fill="#FFF" d="M14.5,13H13v5h1v-2h0.5c0.8271484,0,1.5-0.6728516,1.5-1.5S15.3271484,13,14.5,13z M14.5,15H14v-1h0.5 c0.2758789,0,0.5,0.2241211,0.5,0.5S14.7758789,15,14.5,15z"/><path fill="#FFF" d="M20,13h-1v1.5c0,0.2758789-0.2241211,0.5-0.5,0.5H18v-2h-1v5h1v-2h0.5c0.2758789,0,0.5,0.2241211,0.5,0.5 V18h1v-1.5c0-0.3837891-0.1450195-0.734375-0.3828125-1C19.8549805,15.234375,20,14.8837891,20,14.5V13z"/><linearGradient id="nVUddWd-XdmNPYTvLJJ71c" x1="-1.701" x2="23.137" y1="7.347" y2="18.929" gradientUnits="userSpaceOnUse"><stop offset="0" stop-color="#fff" stop-opacity=".2"/><stop offset="1" stop-color="#fff" stop-opacity="0"/></linearGradient><path fill="url(#nVUddWd-XdmNPYTvLJJ71c)" d="M22,11h-3V5l-5-5H3C1.8954468,0,1,0.8953857,1,2v20c0,1.1045532,0.8954468,2,2,2h14 c1.1045532,0,2-0.8954468,2-2v-2h3c0.5523071,0,1-0.4477539,1-1v-7C23,11.4476929,22.5523071,11,22,11z"/></svg>