<?xml version="1.0" ?><!-- Uploaded to: SVG Repo, www.svgrepo.com, Generator: SVG Repo Mixer Tools -->
<svg width="800px" height="800px" viewBox="0 0 128 128" data-name="Layer 2" id="Layer_2" xmlns="http://www.w3.org/2000/svg"><defs><style>.cls-1{fill:#f1e175;}.cls-2{fill:#ccebf7;}.cls-3{fill:#fd8d92;}.cls-4{fill:#ea563a;}.cls-5{fill:#f1edd8;}.cls-6{fill:#c4e8f4;}.cls-7{fill:#553f07;}</style></defs><title/><path class="cls-1" d="M76.89,59.46l1.27-2.33a8,8,0,0,0-2.69-1.8,3.78,3.78,0,0,0-5.3,3.46h0a.67.67,0,0,0,.67.67Z"/><path class="cls-1" d="M84,59.46l-1.28-2.33a8,8,0,0,1,2.7-1.8,3.78,3.78,0,0,1,5.29,3.46v.67Z"/><path class="cls-1" d="M76.89,59.46l1.27-2.33a2.62,2.62,0,0,1,2.3-1.36h0a2.62,2.62,0,0,1,2.3,1.36L84,59.46Z"/><rect class="cls-2" height="33.81" width="22.05" x="69.44" y="59.42"/><rect class="cls-1" height="35.09" width="6.43" x="77.25" y="59.42"/><rect class="cls-3" height="20.58" width="20.58" x="54.31" y="76.33"/><rect class="cls-1" height="17.64" width="4.41" x="62.3" y="76.33"/><path class="cls-1" d="M61,76.33,62.3,74a7.9,7.9,0,0,0-2.69-1.81,3.78,3.78,0,0,0-5.3,3.46v.67Z"/><path class="cls-1" d="M68.18,76.33,66.9,74a7.89,7.89,0,0,1,2.7-1.81,3.78,3.78,0,0,1,5.29,3.46v.67Z"/><path class="cls-1" d="M61,76.33,62.3,74a2.61,2.61,0,0,1,2.3-1.37h0A2.61,2.61,0,0,1,66.9,74l1.28,2.32Z"/><path class="cls-4" d="M47.21,107.2h53.23l13.75-37.77V53.81s-25.41-.93-25.41,23.55L55.44,92.28A24.87,24.87,0,0,0,46.64,91C36.19,91.42,36.75,107.2,47.21,107.2Z"/><path class="cls-5" d="M96.59,103.52h-3a.74.74,0,0,1,0-1.47h2.47l13-33.34V59.85c-2.94.24-13.5,2.08-14.71,15.83v4.46a.73.73,0,0,1-.45.67L60,95.09l-.13,3.27a.75.75,0,0,1-.73.71l-10.54,0a1.49,1.49,0,0,0-1.38.92,1.41,1.41,0,0,0,.33,1.59,1.48,1.48,0,0,0,1,.43H84.79a.74.74,0,1,1,0,1.47H48.57a2.94,2.94,0,1,1,0-5.88l9.84,0,.12-3a.74.74,0,0,1,.44-.65L92.88,79.65v-4c1.49-17.07,16.75-17.27,16.9-17.27a.74.74,0,0,1,.74.73v9.78a.86.86,0,0,1,0,.27l-13.2,33.93A.72.72,0,0,1,96.59,103.52Z"/><path class="cls-6" d="M117.13,111.61V116H18.27a2.21,2.21,0,0,1-1.1-4.12h0a2.2,2.2,0,0,1,1.1-.29Z"/><rect class="cls-7" height="4.41" width="4.41" x="58.33" y="107.2"/><rect class="cls-7" height="4.41" width="4.41" x="100.96" y="107.2"/><path class="cls-4" d="M100.44,107.2h16.69V99.86s-8.68-1.34-10.37-10Z"/><path class="cls-5" d="M114.19,103.52h-8.82a.74.74,0,0,1,0-1.47h8.09v-.23a11.28,11.28,0,0,1-7.16-5.49.74.74,0,1,1,1.27-.75,9.6,9.6,0,0,0,6.69,4.89.73.73,0,0,1,.67.73v1.59A.74.74,0,0,1,114.19,103.52Z"/><circle class="cls-6" cx="14.54" cy="15.66" r="3.67"/><circle class="cls-6" cx="103.55" cy="15.66" r="3.67"/><circle class="cls-6" cx="82.76" cy="35.08" r="3.67"/><circle class="cls-6" cx="23.6" cy="66.4" r="3.67"/><circle class="cls-6" cx="47.74" cy="41.81" r="2.22"/><circle class="cls-6" cx="29.5" cy="87.7" r="2.22"/><circle class="cls-6" cx="109.45" cy="48.71" r="2.22"/></svg>